HIERARCHY
ROOT Hips
{
    OFFSET 0.000000 0.000000 0.000000
    CHANNELS 6 Xposition Yposition Zposition Zrotation Xrotation Yrotation
    JOINT Spine
    {
        OFFSET -0.000000 7.236184 0.000000
        CHANNELS 3 Zrotation Xrotation Yrotation
        JOINT Spine1
        {
            OFFSET -0.000000 20.420147 0.000000
            CHANNELS 3 Zrotation Xrotation Yrotation
            JOINT Neck
            {
                OFFSET -0.000000 20.336288 1.848754
                CHANNELS 3 Zrotation Xrotation Yrotation
                JOINT Head
                {
                    OFFSET -0.000000 12.354461 -1.764923
                    CHANNELS 3 Zrotation Xrotation Yrotation
                    End Site
                    {
                        OFFSET -0.000000 22.061537 0.000000
                    }
                }
            }
            JOINT LeftShoulder
            {
                OFFSET 3.573296 18.396038 -0.314103
                CHANNELS 3 Zrotation Xrotation Yrotation
                JOINT LeftArm
                {
                    OFFSET 10.880760 0.000000 0.000000
                    CHANNELS 3 Zrotation Xrotation Yrotation
                    JOINT LeftForeArm
                    {
                        OFFSET 27.185530 0.000000 0.000000
                        CHANNELS 3 Zrotation Xrotation Yrotation
                        JOINT LeftHand
                        {
                            OFFSET 27.825975 0.000000 0.000000
                            CHANNELS 3 Zrotation Xrotation Yrotation
                            End Site
                            {
                                OFFSET 13.236923 0.000000 0.000000
                            }
                        }
                    }
                }
            }
            JOINT RightShoulder
            {
                OFFSET -3.474926 18.396038 -0.314103
                CHANNELS 3 Zrotation Xrotation Yrotation
                JOINT RightArm
                {
                    OFFSET -10.880760 0.000000 0.000000
                    CHANNELS 3 Zrotation Xrotation Yrotation
                    JOINT RightForeArm
                    {
                        OFFSET -27.185530 0.000000 0.000000
                        CHANNELS 3 Zrotation Xrotation Yrotation
                        JOINT RightHand
                        {
                            OFFSET -27.825975 0.000000 0.000000
                            CHANNELS 3 Zrotation Xrotation Yrotation
                            End Site
                            {
                                OFFSET -13.236923 0.000000 0.000000
                            }
                        }
                    }
                }
            }
        }
    }
    JOINT LeftUpLeg
    {
        OFFSET 8.824615 0.000000 0.000000
        CHANNELS 3 Zrotation Xrotation Yrotation
        JOINT LeftLeg
        {
            OFFSET -0.000000 -35.111282 0.000000
            CHANNELS 3 Zrotation Xrotation Yrotation
            JOINT LeftFoot
            {
                OFFSET -0.000000 -42.324711 0.000000
                CHANNELS 3 Zrotation Xrotation Yrotation
                JOINT LeftToeBase
                {
                    OFFSET -0.000000 -5.735999 13.236923
                    CHANNELS 3 Zrotation Xrotation Yrotation
                    End Site
                    {
                        OFFSET -0.000000 0.000000 3.529846
                    }
                }
            }
        }
    }
    JOINT RightUpLeg
    {
        OFFSET -8.824615 0.000000 0.000000
        CHANNELS 3 Zrotation Xrotation Yrotation
        JOINT RightLeg
        {
            OFFSET -0.000000 -35.111282 0.000000
            CHANNELS 3 Zrotation Xrotation Yrotation
            JOINT RightFoot
            {
                OFFSET -0.000000 -42.324711 0.000000
                CHANNELS 3 Zrotation Xrotation Yrotation
                JOINT RightToeBase
                {
                    OFFSET -0.000000 -5.735999 13.236923
                    CHANNELS 3 Zrotation Xrotation Yrotation
                    End Site
                    {
                        OFFSET -0.000000 0.000000 3.529846
                    }
                }
            }
        }
    }
}
MOTION
Frames:    10
Frame Time:    0.008333
-8.430885    81.551918    111.546555    -2.261068    -6.351422    -179.972107    -2.205976    -9.671925    0.792214    0.391627    6.967569    0.955089    2.408424    3.913976    -1.895531    5.576971    -18.210396    -0.591427    -2.282434    20.699429    -4.531030    -33.111729    46.739326    -48.004311    -0.176245    -3.776535    -17.317036    17.405571    -3.634309    1.106462    10.549092    20.529535    -4.937158    28.810528    46.642326    47.211353    0.290698    -13.406902    22.114365    -9.955326    -12.997821    -5.472733    -3.056017    -8.646787    -6.452576    -0.943252    15.191509    -0.584765    0.069405    -12.914551    -5.433856    -0.406377    1.502246    0.449254    -1.395135    -3.447605    4.043892    3.170811    6.205999    5.833783    -5.994224    -8.912637    -14.086047    -0.579947    -0.457319    0.627652    
-8.410403    81.553360    111.481499    -2.275120    -6.412699    -179.957733    -2.220213    -9.657521    0.798562    0.370203    6.942037    0.963746    2.403352    3.848705    -1.898744    5.534892    -18.332218    -0.602414    -2.269265    20.678192    -4.537433    -33.194847    46.668812    -47.961674    -0.188292    -3.845715    -17.566225    17.363337    -3.686506    1.235562    10.513004    20.510027    -4.907175    28.686872    46.730598    47.313992    0.225638    -13.339564    22.710369    -9.654591    -12.938805    -5.406001    -3.046714    -8.638037    -6.434530    -0.948856    15.142580    -0.607562    0.062406    -12.910868    -5.443059    -0.393426    1.512434    0.434929    -1.389865    -3.477097    4.048315    3.169732    6.213216    5.556365    -5.961873    -8.936320    -13.833741    -0.576455    -0.464993    0.623880    
-8.390058    81.554787    111.416771    -2.288628    -6.472825    -179.943100    -2.233407    -9.642799    0.804708    0.347807    6.916636    0.972143    2.399013    3.784701    -1.901625    5.491917    -18.452616    -0.613566    -2.255790    20.657497    -4.543074    -33.276882    46.598831    -47.920906    -0.196932    -3.910708    -17.817699    17.313583    -3.735175    1.358291    10.477561    20.490372    -4.877561    28.561916    46.819191    47.416401    0.154940    -13.274271    23.309896    -9.353181    -12.879642    -5.339695    -3.037063    -8.627609    -6.416656    -0.954230    15.092318    -0.629438    0.054846    -12.906760    -5.453265    -0.380466    1.521984    0.420595    -1.383817    -3.507435    4.051470    3.168040    6.224235    5.286835    -5.930557    -8.960645    -13.588436    -0.573002    -0.473746    0.620150    
-8.369934    81.556183    111.352608    -2.301209    -6.530987    -179.927994    -2.246568    -9.627638    0.810573    0.328239    6.892212    0.980040    2.391875    3.722160    -1.904488    5.448812    -18.570545    -0.624540    -2.245198    20.636578    -4.547898    -33.355293    46.530678    -47.883255    -0.198585    -3.968884    -18.074469    17.251261    -3.777900    1.470227    10.440013    20.470106    -4.849243    28.434551    46.909222    47.519749    0.078115    -13.212641    23.917406    -9.050796    -12.821933    -5.272504    -3.026591    -8.614608    -6.399848    -0.959907    15.040227    -0.649916    0.046775    -12.902154    -5.464043    -0.367491    1.530717    0.406246    -1.376485    -3.539616    4.052308    3.165514    6.242783    5.033193    -5.900655    -8.986527    -13.357326    -0.569668    -0.484584    0.616552    
-8.350162    81.557457    111.289383    -2.312646    -6.586549    -179.912415    -2.256992    -9.611567    0.816017    0.305221    6.867356    0.987475    2.388176    3.663179    -1.906073    5.402633    -18.684769    -0.635690    -2.232908    20.617407    -4.551089    -33.430103    46.464466    -47.851372    -0.190283    -4.018029    -18.336382    17.174446    -3.812501    1.567600    10.405383    20.449833    -4.821146    28.303450    47.001213    47.621822    -0.004542    -13.156778    24.535355    -8.748495    -12.767674    -5.203772    -3.015070    -8.598786    -6.384718    -0.966287    14.986653    -0.668737    0.038344    -12.897346    -5.474848    -0.354540    1.538136    0.391924    -1.367478    -3.574866    4.049568    3.161730    6.272558    4.802382    -5.873305    -9.014922    -13.146399    -0.566396    -0.498292    0.613022    
-8.330719    81.558578    111.227104    -2.322885    -6.639461    -179.896332    -2.266721    -9.594786    0.821063    0.284046    6.843002    0.994322    2.383003    3.607001    -1.906939    5.354822    -18.794783    -0.646610    -2.223095    20.598791    -4.552974    -33.498566    46.401520    -47.826031    -0.170800    -4.058432    -18.606112    17.082577    -3.839164    1.649771    10.369685    20.428818    -4.794043    28.169508    47.094769    47.723412    -0.092542    -13.106928    25.167246    -8.445722    -12.717186    -5.132596    -3.002412    -8.580506    -6.371523    -0.973591    14.932345    -0.686027    0.029681    -12.892766    -5.485147    -0.341486    1.543571    0.377490    -1.356891    -3.614480    4.043275    3.157160    6.316148    4.599885    -5.849465    -9.046159    -12.961407    -0.563247    -0.515460    0.609628    
-8.311677    81.559494    111.165977    -2.331982    -6.689647    -179.879776    -2.274914    -9.576946    0.825703    0.262494    6.818236    1.000621    2.378756    3.554715    -1.906522    5.303970    -18.900236    -0.657421    -2.213846    20.581478    -4.553654    -33.559586    46.342445    -47.809292    -0.139887    -4.091331    -18.883532    16.977571    -3.858929    1.716844    10.334632    20.407600    -4.767386    28.032013    47.189896    47.824371    -0.185507    -13.064705    25.813995    -8.143280    -12.672009    -5.059044    -2.988865    -8.560572    -6.360204    -0.981748    14.878660    -0.701159    0.020631    -12.888958    -5.495515    -0.328331    1.547230    0.362945    -1.345123    -3.659309    4.033919    3.152473    6.375504    4.430531    -5.830257    -9.080565    -12.807946    -0.560378    -0.536392    0.606540    
-8.292997    81.560158    111.105873    -2.339855    -6.737237    -179.862732    -2.282102    -9.558101    0.829942    0.242100    6.793335    1.006442    2.374392    3.505735    -1.904817    5.249583    -19.000767    -0.668222    -2.206394    20.564665    -4.553660    -33.611843    46.288395    -47.801685    -0.097916    -4.119473    -19.169731    16.861403    -3.874206    1.770412    10.299012    20.385706    -4.741041    27.891506    47.286369    47.924881    -0.282982    -13.030730    26.477480    -7.840474    -12.632778    -4.981984    -2.974316    -8.539556    -6.350622    -0.990816    14.826571    -0.714118    0.011062    -12.886359    -5.506028    -0.315081    1.548992    0.348298    -1.331991    -3.710344    4.021641    3.147664    6.452485    4.293483    -5.815353    -9.118934    -12.685567    -0.557911    -0.561653    0.603891    
-8.274683    81.560547    111.046684    -2.346582    -6.782454    -179.845032    -2.287898    -9.538133    0.833876    0.221777    6.767981    1.011671    2.370808    3.460460    -1.901588    5.191215    -19.096773    -0.678922    -2.199869    20.548647    -4.553230    -33.653942    46.239620    -47.805042    -0.046259    -4.145972    -19.464911    16.737257    -3.887973    1.811977    10.263359    20.363350    -4.714367    27.749222    47.382710    48.024315    -0.383721    -13.005191    27.158667    -7.536657    -12.599968    -4.899886    -2.959101    -8.518636    -6.342444    -1.000443    14.777942    -0.725255    0.000811    -12.885726    -5.516786    -0.301558    1.548542    0.333349    -1.317931    -3.767946    4.007666    3.143558    6.547224    4.187121    -5.805223    -9.161016    -12.594303    -0.556037    -0.591298    0.601888    
-8.256806    81.560608    110.988617    -2.352051    -6.825256    -179.826630    -2.292140    -9.516971    0.837475    0.201447    6.741966    1.016451    2.368567    3.418445    -1.896736    5.128273    -19.186813    -0.689783    -2.193693    20.533333    -4.553146    -33.685612    46.196491    -47.819668    0.012935    -4.173674    -19.767700    16.608967    -3.903111    1.842725    10.227945    20.340927    -4.687697    27.604668    47.478897    48.123753    -0.487203    -12.989729    27.854626    -7.231742    -12.575236    -4.812190    -2.943422    -8.499052    -6.334808    -1.010083    14.734943    -0.735237    -0.010359    -12.887838    -5.528147    -0.287762    1.546382    0.318100    -1.302969    -3.832246    3.993038    3.140427    6.659669    4.108014    -5.799347    -9.206831    -12.532001    -0.555028    -0.624777    0.600823    
